<mxfile host="app.diagrams.net" modified="2024-01-11T07:55:43.067Z" agent="Mozilla/5.0 (Windows NT 10.0; Win64; x64) AppleWebKit/537.36 (KHTML, like Gecko) Chrome/120.0.0.0 Safari/537.36 Edg/120.0.0.0" etag="y0fiKGiLlGdzmB7tjfQ_" version="22.1.18" type="onedrive">
  <diagram name="第 1 页" id="r6lGxOo73KRsV1iiHgKm">
    <mxGraphModel grid="0" page="0" gridSize="10" guides="1" tooltips="1" connect="1" arrows="1" fold="1" pageScale="1" pageWidth="20000" pageHeight="40000" math="0" shadow="0">
      <root>
        <mxCell id="0" />
        <mxCell id="1" parent="0" />
        <mxCell id="PqNFrKnJrNOgI4oGZhhH-16" style="edgeStyle=orthogonalEdgeStyle;rounded=0;orthogonalLoop=1;jettySize=auto;html=1;exitX=0.5;exitY=1;exitDx=0;exitDy=0;fontSize=15;" edge="1" parent="1" source="PqNFrKnJrNOgI4oGZhhH-1" target="PqNFrKnJrNOgI4oGZhhH-2">
          <mxGeometry relative="1" as="geometry" />
        </mxCell>
        <mxCell id="PqNFrKnJrNOgI4oGZhhH-1" value="PC-&amp;gt;EM-&amp;gt;IR&lt;br style=&quot;font-size: 15px;&quot;&gt;PC + 1 -&amp;gt; PC" style="rounded=0;whiteSpace=wrap;html=1;strokeColor=default;strokeWidth=1;align=center;verticalAlign=middle;fontFamily=Helvetica;fontSize=15;fontColor=default;fillColor=default;" vertex="1" parent="1">
          <mxGeometry x="163.00000000000045" y="32" width="120" height="60" as="geometry" />
        </mxCell>
        <mxCell id="PqNFrKnJrNOgI4oGZhhH-2" value="操作码测试" style="rhombus;whiteSpace=wrap;html=1;fontSize=15;" vertex="1" parent="1">
          <mxGeometry x="164" y="138" width="118" height="62" as="geometry" />
        </mxCell>
        <mxCell id="PqNFrKnJrNOgI4oGZhhH-3" value="PC-&amp;gt;EM-&amp;gt;R0&lt;br style=&quot;font-size: 15px;&quot;&gt;PC+1-&amp;gt;PC" style="rounded=0;whiteSpace=wrap;html=1;strokeColor=default;strokeWidth=1;align=center;verticalAlign=middle;fontFamily=Helvetica;fontSize=15;fontColor=default;fillColor=default;" vertex="1" parent="1">
          <mxGeometry x="-174.49999999999955" y="297" width="120" height="60" as="geometry" />
        </mxCell>
        <mxCell id="PqNFrKnJrNOgI4oGZhhH-4" value="MOV R0, #0" style="text;html=1;align=center;verticalAlign=middle;resizable=0;points=[];autosize=1;strokeColor=none;fillColor=none;fontSize=15;" vertex="1" parent="1">
          <mxGeometry x="-160" y="206" width="101" height="30" as="geometry" />
        </mxCell>
        <mxCell id="PqNFrKnJrNOgI4oGZhhH-5" value="JZ END" style="text;html=1;align=center;verticalAlign=middle;resizable=0;points=[];autosize=1;strokeColor=none;fillColor=none;fontSize=15;" vertex="1" parent="1">
          <mxGeometry x="392" y="202.5" width="70" height="30" as="geometry" />
        </mxCell>
        <mxCell id="PqNFrKnJrNOgI4oGZhhH-6" value="MOV R2, A" style="text;html=1;align=center;verticalAlign=middle;resizable=0;points=[];autosize=1;strokeColor=none;fillColor=none;fontSize=15;" vertex="1" parent="1">
          <mxGeometry x="-46" y="206" width="93" height="30" as="geometry" />
        </mxCell>
        <mxCell id="PqNFrKnJrNOgI4oGZhhH-7" value="SUB A, #1" style="text;html=1;align=center;verticalAlign=middle;resizable=0;points=[];autosize=1;strokeColor=none;fillColor=none;fontSize=15;" vertex="1" parent="1">
          <mxGeometry x="251" y="202" width="87" height="30" as="geometry" />
        </mxCell>
        <mxCell id="PqNFrKnJrNOgI4oGZhhH-9" value="JMP CALCULATE_FIBO" style="text;html=1;align=center;verticalAlign=middle;resizable=0;points=[];autosize=1;strokeColor=none;fillColor=none;fontSize=15;" vertex="1" parent="1">
          <mxGeometry x="44" y="206" width="182" height="30" as="geometry" />
        </mxCell>
        <mxCell id="PqNFrKnJrNOgI4oGZhhH-20" style="edgeStyle=orthogonalEdgeStyle;shape=connector;rounded=0;orthogonalLoop=1;jettySize=auto;html=1;exitX=0.5;exitY=0;exitDx=0;exitDy=0;labelBackgroundColor=default;strokeColor=default;align=center;verticalAlign=middle;fontFamily=Helvetica;fontSize=15;fontColor=default;endArrow=none;endFill=0;" edge="1" parent="1" source="PqNFrKnJrNOgI4oGZhhH-10">
          <mxGeometry relative="1" as="geometry">
            <mxPoint x="22.5" y="240.85144710540771" as="targetPoint" />
          </mxGeometry>
        </mxCell>
        <mxCell id="PqNFrKnJrNOgI4oGZhhH-10" value="A-&amp;gt;R2" style="rounded=0;whiteSpace=wrap;html=1;strokeColor=default;strokeWidth=1;align=center;verticalAlign=middle;fontFamily=Helvetica;fontSize=15;fontColor=default;fillColor=default;" vertex="1" parent="1">
          <mxGeometry x="-37.499999999999545" y="297" width="120" height="60" as="geometry" />
        </mxCell>
        <mxCell id="PqNFrKnJrNOgI4oGZhhH-21" style="edgeStyle=orthogonalEdgeStyle;shape=connector;rounded=0;orthogonalLoop=1;jettySize=auto;html=1;exitX=0.5;exitY=0;exitDx=0;exitDy=0;labelBackgroundColor=default;strokeColor=default;align=center;verticalAlign=middle;fontFamily=Helvetica;fontSize=15;fontColor=default;endArrow=none;endFill=0;" edge="1" parent="1" source="PqNFrKnJrNOgI4oGZhhH-11">
          <mxGeometry relative="1" as="geometry">
            <mxPoint x="158.75" y="241.50086116790771" as="targetPoint" />
          </mxGeometry>
        </mxCell>
        <mxCell id="PqNFrKnJrNOgI4oGZhhH-11" value="IR-&amp;gt;PC" style="rounded=0;whiteSpace=wrap;html=1;strokeColor=default;strokeWidth=1;align=center;verticalAlign=middle;fontFamily=Helvetica;fontSize=15;fontColor=default;fillColor=default;" vertex="1" parent="1">
          <mxGeometry x="98.50000000000045" y="297" width="120" height="60" as="geometry" />
        </mxCell>
        <mxCell id="PqNFrKnJrNOgI4oGZhhH-22" style="edgeStyle=orthogonalEdgeStyle;shape=connector;rounded=0;orthogonalLoop=1;jettySize=auto;html=1;exitX=0.5;exitY=0;exitDx=0;exitDy=0;labelBackgroundColor=default;strokeColor=default;align=center;verticalAlign=middle;fontFamily=Helvetica;fontSize=15;fontColor=default;endArrow=none;endFill=0;" edge="1" parent="1" source="PqNFrKnJrNOgI4oGZhhH-12">
          <mxGeometry relative="1" as="geometry">
            <mxPoint x="294.3939393939395" y="240.99800942160869" as="targetPoint" />
          </mxGeometry>
        </mxCell>
        <mxCell id="PqNFrKnJrNOgI4oGZhhH-26" style="edgeStyle=orthogonalEdgeStyle;shape=connector;rounded=0;orthogonalLoop=1;jettySize=auto;html=1;exitX=0.5;exitY=1;exitDx=0;exitDy=0;entryX=0.5;entryY=0;entryDx=0;entryDy=0;labelBackgroundColor=default;strokeColor=default;align=center;verticalAlign=middle;fontFamily=Helvetica;fontSize=15;fontColor=default;endArrow=none;endFill=0;" edge="1" parent="1" source="PqNFrKnJrNOgI4oGZhhH-12" target="PqNFrKnJrNOgI4oGZhhH-24">
          <mxGeometry relative="1" as="geometry" />
        </mxCell>
        <mxCell id="PqNFrKnJrNOgI4oGZhhH-12" value="PC-&amp;gt;EM-&amp;gt;MAR&lt;br style=&quot;font-size: 15px;&quot;&gt;PC + 1-&amp;gt;PC" style="rounded=0;whiteSpace=wrap;html=1;strokeColor=default;strokeWidth=1;align=center;verticalAlign=middle;fontFamily=Helvetica;fontSize=15;fontColor=default;fillColor=default;" vertex="1" parent="1">
          <mxGeometry x="234.50000000000045" y="297" width="120" height="60" as="geometry" />
        </mxCell>
        <mxCell id="PqNFrKnJrNOgI4oGZhhH-23" style="edgeStyle=orthogonalEdgeStyle;shape=connector;rounded=0;orthogonalLoop=1;jettySize=auto;html=1;exitX=0.5;exitY=0;exitDx=0;exitDy=0;labelBackgroundColor=default;strokeColor=default;align=center;verticalAlign=middle;fontFamily=Helvetica;fontSize=15;fontColor=default;endArrow=none;endFill=0;" edge="1" parent="1" source="PqNFrKnJrNOgI4oGZhhH-13">
          <mxGeometry relative="1" as="geometry">
            <mxPoint x="430.75757575757575" y="240.68316049286818" as="targetPoint" />
          </mxGeometry>
        </mxCell>
        <mxCell id="PqNFrKnJrNOgI4oGZhhH-13" value="PC-&amp;gt;EM-&amp;gt;PC" style="rounded=0;whiteSpace=wrap;html=1;strokeColor=default;strokeWidth=1;align=center;verticalAlign=middle;fontFamily=Helvetica;fontSize=15;fontColor=default;fillColor=default;" vertex="1" parent="1">
          <mxGeometry x="370.50000000000045" y="297" width="120" height="60" as="geometry" />
        </mxCell>
        <mxCell id="PqNFrKnJrNOgI4oGZhhH-14" value="D-&amp;gt;OUT" style="rounded=0;whiteSpace=wrap;html=1;strokeColor=default;strokeWidth=1;align=center;verticalAlign=middle;fontFamily=Helvetica;fontSize=15;fontColor=default;fillColor=default;" vertex="1" parent="1">
          <mxGeometry x="506.50000000000045" y="297" width="120" height="60" as="geometry" />
        </mxCell>
        <mxCell id="PqNFrKnJrNOgI4oGZhhH-18" style="edgeStyle=orthogonalEdgeStyle;rounded=0;orthogonalLoop=1;jettySize=auto;html=1;endArrow=none;endFill=0;fontSize=15;" edge="1" parent="1" source="PqNFrKnJrNOgI4oGZhhH-15" target="PqNFrKnJrNOgI4oGZhhH-3">
          <mxGeometry relative="1" as="geometry" />
        </mxCell>
        <mxCell id="PqNFrKnJrNOgI4oGZhhH-19" style="edgeStyle=orthogonalEdgeStyle;shape=connector;rounded=0;orthogonalLoop=1;jettySize=auto;html=1;entryX=0.5;entryY=0;entryDx=0;entryDy=0;labelBackgroundColor=default;strokeColor=default;align=center;verticalAlign=middle;fontFamily=Helvetica;fontSize=15;fontColor=default;endArrow=none;endFill=0;" edge="1" parent="1" source="PqNFrKnJrNOgI4oGZhhH-15" target="PqNFrKnJrNOgI4oGZhhH-14">
          <mxGeometry relative="1" as="geometry" />
        </mxCell>
        <mxCell id="PqNFrKnJrNOgI4oGZhhH-15" value="" style="shape=waypoint;sketch=0;size=6;pointerEvents=1;points=[];fillColor=none;resizable=0;rotatable=0;perimeter=centerPerimeter;snapToPoint=1;fontSize=15;" vertex="1" parent="1">
          <mxGeometry x="213" y="230" width="20" height="20" as="geometry" />
        </mxCell>
        <mxCell id="PqNFrKnJrNOgI4oGZhhH-17" style="edgeStyle=orthogonalEdgeStyle;rounded=0;orthogonalLoop=1;jettySize=auto;html=1;exitX=0.5;exitY=1;exitDx=0;exitDy=0;entryX=0.58;entryY=0.237;entryDx=0;entryDy=0;entryPerimeter=0;fontSize=15;" edge="1" parent="1" source="PqNFrKnJrNOgI4oGZhhH-2" target="PqNFrKnJrNOgI4oGZhhH-15">
          <mxGeometry relative="1" as="geometry" />
        </mxCell>
        <mxCell id="PqNFrKnJrNOgI4oGZhhH-27" style="edgeStyle=orthogonalEdgeStyle;shape=connector;rounded=0;orthogonalLoop=1;jettySize=auto;html=1;exitX=0.5;exitY=1;exitDx=0;exitDy=0;labelBackgroundColor=default;strokeColor=default;align=center;verticalAlign=middle;fontFamily=Helvetica;fontSize=15;fontColor=default;endArrow=none;endFill=0;" edge="1" parent="1" source="PqNFrKnJrNOgI4oGZhhH-24" target="PqNFrKnJrNOgI4oGZhhH-25">
          <mxGeometry relative="1" as="geometry" />
        </mxCell>
        <mxCell id="PqNFrKnJrNOgI4oGZhhH-24" value="MAR-&amp;gt;EM-&amp;gt;W" style="rounded=0;whiteSpace=wrap;html=1;strokeColor=default;strokeWidth=1;align=center;verticalAlign=middle;fontFamily=Helvetica;fontSize=15;fontColor=default;fillColor=default;" vertex="1" parent="1">
          <mxGeometry x="234.50000000000045" y="411" width="120" height="60" as="geometry" />
        </mxCell>
        <mxCell id="PqNFrKnJrNOgI4oGZhhH-46" style="edgeStyle=orthogonalEdgeStyle;shape=connector;rounded=0;orthogonalLoop=1;jettySize=auto;html=1;exitX=0.5;exitY=1;exitDx=0;exitDy=0;labelBackgroundColor=default;strokeColor=default;align=center;verticalAlign=middle;fontFamily=Helvetica;fontSize=15;fontColor=default;endArrow=none;endFill=0;" edge="1" parent="1" source="PqNFrKnJrNOgI4oGZhhH-25">
          <mxGeometry relative="1" as="geometry">
            <mxPoint x="294.5" y="665.8912105560303" as="targetPoint" />
          </mxGeometry>
        </mxCell>
        <mxCell id="PqNFrKnJrNOgI4oGZhhH-25" value="D-&amp;gt;A" style="rounded=0;whiteSpace=wrap;html=1;strokeColor=default;strokeWidth=1;align=center;verticalAlign=middle;fontFamily=Helvetica;fontSize=15;fontColor=default;fillColor=default;" vertex="1" parent="1">
          <mxGeometry x="234.50000000000045" y="529" width="120" height="60" as="geometry" />
        </mxCell>
        <mxCell id="PqNFrKnJrNOgI4oGZhhH-36" value="" style="edgeStyle=none;orthogonalLoop=1;jettySize=auto;html=1;rounded=0;labelBackgroundColor=default;strokeColor=default;align=center;verticalAlign=middle;fontFamily=Helvetica;fontSize=15;fontColor=default;endArrow=none;endFill=0;shape=connector;" edge="1" parent="1">
          <mxGeometry width="100" relative="1" as="geometry">
            <mxPoint x="279.5" y="666" as="sourcePoint" />
            <mxPoint x="312.5" y="666" as="targetPoint" />
            <Array as="points" />
          </mxGeometry>
        </mxCell>
        <mxCell id="PqNFrKnJrNOgI4oGZhhH-37" value="" style="edgeStyle=none;orthogonalLoop=1;jettySize=auto;html=1;rounded=0;labelBackgroundColor=default;strokeColor=default;align=center;verticalAlign=middle;fontFamily=Helvetica;fontSize=15;fontColor=default;endArrow=none;endFill=0;shape=connector;" edge="1" parent="1">
          <mxGeometry width="100" relative="1" as="geometry">
            <mxPoint x="311.5" y="666" as="sourcePoint" />
            <mxPoint x="330.5" y="647" as="targetPoint" />
            <Array as="points" />
          </mxGeometry>
        </mxCell>
        <mxCell id="PqNFrKnJrNOgI4oGZhhH-38" value="" style="edgeStyle=none;orthogonalLoop=1;jettySize=auto;html=1;rounded=0;labelBackgroundColor=default;strokeColor=default;align=center;verticalAlign=middle;fontFamily=Helvetica;fontSize=15;fontColor=default;endArrow=none;endFill=0;shape=connector;" edge="1" parent="1">
          <mxGeometry width="100" relative="1" as="geometry">
            <mxPoint x="258.5" y="683" as="sourcePoint" />
            <mxPoint x="280.5" y="666" as="targetPoint" />
            <Array as="points" />
          </mxGeometry>
        </mxCell>
        <mxCell id="PqNFrKnJrNOgI4oGZhhH-39" value="OUT" style="text;html=1;align=center;verticalAlign=middle;resizable=0;points=[];autosize=1;strokeColor=none;fillColor=none;fontSize=15;fontFamily=Helvetica;fontColor=default;" vertex="1" parent="1">
          <mxGeometry x="516" y="203" width="50" height="30" as="geometry" />
        </mxCell>
        <mxCell id="PqNFrKnJrNOgI4oGZhhH-47" style="edgeStyle=orthogonalEdgeStyle;shape=connector;rounded=0;orthogonalLoop=1;jettySize=auto;html=1;exitDx=0;exitDy=0;labelBackgroundColor=default;strokeColor=default;align=center;verticalAlign=middle;fontFamily=Helvetica;fontSize=15;fontColor=default;endArrow=none;endFill=0;" edge="1" parent="1">
          <mxGeometry relative="1" as="geometry">
            <mxPoint x="22.5" y="432.8912105560303" as="targetPoint" />
            <mxPoint x="23" y="357" as="sourcePoint" />
          </mxGeometry>
        </mxCell>
        <mxCell id="PqNFrKnJrNOgI4oGZhhH-49" value="" style="edgeStyle=none;orthogonalLoop=1;jettySize=auto;html=1;rounded=0;labelBackgroundColor=default;strokeColor=default;align=center;verticalAlign=middle;fontFamily=Helvetica;fontSize=15;fontColor=default;endArrow=none;endFill=0;shape=connector;" edge="1" parent="1">
          <mxGeometry width="100" relative="1" as="geometry">
            <mxPoint x="7.5" y="433" as="sourcePoint" />
            <mxPoint x="40.5" y="433" as="targetPoint" />
            <Array as="points" />
          </mxGeometry>
        </mxCell>
        <mxCell id="PqNFrKnJrNOgI4oGZhhH-50" value="" style="edgeStyle=none;orthogonalLoop=1;jettySize=auto;html=1;rounded=0;labelBackgroundColor=default;strokeColor=default;align=center;verticalAlign=middle;fontFamily=Helvetica;fontSize=15;fontColor=default;endArrow=none;endFill=0;shape=connector;" edge="1" parent="1">
          <mxGeometry width="100" relative="1" as="geometry">
            <mxPoint x="39.5" y="433" as="sourcePoint" />
            <mxPoint x="58.5" y="414" as="targetPoint" />
            <Array as="points" />
          </mxGeometry>
        </mxCell>
        <mxCell id="PqNFrKnJrNOgI4oGZhhH-51" value="" style="edgeStyle=none;orthogonalLoop=1;jettySize=auto;html=1;rounded=0;labelBackgroundColor=default;strokeColor=default;align=center;verticalAlign=middle;fontFamily=Helvetica;fontSize=15;fontColor=default;endArrow=none;endFill=0;shape=connector;" edge="1" parent="1">
          <mxGeometry width="100" relative="1" as="geometry">
            <mxPoint x="-13.5" y="450" as="sourcePoint" />
            <mxPoint x="8.5" y="433" as="targetPoint" />
            <Array as="points" />
          </mxGeometry>
        </mxCell>
        <mxCell id="PqNFrKnJrNOgI4oGZhhH-53" value="" style="edgeStyle=orthogonalEdgeStyle;shape=connector;rounded=0;orthogonalLoop=1;jettySize=auto;html=1;exitX=0.5;exitY=1;exitDx=0;exitDy=0;labelBackgroundColor=default;strokeColor=default;align=center;verticalAlign=middle;fontFamily=Helvetica;fontSize=15;fontColor=default;endArrow=none;endFill=0;" edge="1" parent="1">
          <mxGeometry relative="1" as="geometry">
            <mxPoint x="23" y="357" as="targetPoint" />
            <mxPoint x="22.500000000000455" y="356" as="sourcePoint" />
          </mxGeometry>
        </mxCell>
        <mxCell id="PqNFrKnJrNOgI4oGZhhH-120" style="edgeStyle=orthogonalEdgeStyle;shape=connector;rounded=0;orthogonalLoop=1;jettySize=auto;html=1;exitX=0.5;exitY=1;exitDx=0;exitDy=0;labelBackgroundColor=default;strokeColor=default;align=center;verticalAlign=middle;fontFamily=Helvetica;fontSize=15;fontColor=default;endArrow=none;endFill=0;" edge="1" parent="1">
          <mxGeometry relative="1" as="geometry">
            <mxPoint x="158.5" y="433.8912105560303" as="targetPoint" />
            <mxPoint x="159" y="357" as="sourcePoint" />
          </mxGeometry>
        </mxCell>
        <mxCell id="PqNFrKnJrNOgI4oGZhhH-121" value="" style="edgeStyle=none;orthogonalLoop=1;jettySize=auto;html=1;rounded=0;labelBackgroundColor=default;strokeColor=default;align=center;verticalAlign=middle;fontFamily=Helvetica;fontSize=15;fontColor=default;endArrow=none;endFill=0;shape=connector;" edge="1" parent="1">
          <mxGeometry width="100" relative="1" as="geometry">
            <mxPoint x="143.5" y="434" as="sourcePoint" />
            <mxPoint x="176.5" y="434" as="targetPoint" />
            <Array as="points" />
          </mxGeometry>
        </mxCell>
        <mxCell id="PqNFrKnJrNOgI4oGZhhH-122" value="" style="edgeStyle=none;orthogonalLoop=1;jettySize=auto;html=1;rounded=0;labelBackgroundColor=default;strokeColor=default;align=center;verticalAlign=middle;fontFamily=Helvetica;fontSize=15;fontColor=default;endArrow=none;endFill=0;shape=connector;" edge="1" parent="1">
          <mxGeometry width="100" relative="1" as="geometry">
            <mxPoint x="175.5" y="434" as="sourcePoint" />
            <mxPoint x="194.5" y="415" as="targetPoint" />
            <Array as="points" />
          </mxGeometry>
        </mxCell>
        <mxCell id="PqNFrKnJrNOgI4oGZhhH-123" value="" style="edgeStyle=none;orthogonalLoop=1;jettySize=auto;html=1;rounded=0;labelBackgroundColor=default;strokeColor=default;align=center;verticalAlign=middle;fontFamily=Helvetica;fontSize=15;fontColor=default;endArrow=none;endFill=0;shape=connector;" edge="1" parent="1">
          <mxGeometry width="100" relative="1" as="geometry">
            <mxPoint x="122.5" y="451" as="sourcePoint" />
            <mxPoint x="144.5" y="434" as="targetPoint" />
            <Array as="points" />
          </mxGeometry>
        </mxCell>
        <mxCell id="PqNFrKnJrNOgI4oGZhhH-124" style="edgeStyle=orthogonalEdgeStyle;shape=connector;rounded=0;orthogonalLoop=1;jettySize=auto;html=1;exitDx=0;exitDy=0;labelBackgroundColor=default;strokeColor=default;align=center;verticalAlign=middle;fontFamily=Helvetica;fontSize=15;fontColor=default;endArrow=none;endFill=0;" edge="1" parent="1">
          <mxGeometry relative="1" as="geometry">
            <mxPoint x="-114.5" y="433.8912105560303" as="targetPoint" />
            <mxPoint x="-114" y="358" as="sourcePoint" />
          </mxGeometry>
        </mxCell>
        <mxCell id="PqNFrKnJrNOgI4oGZhhH-125" value="" style="edgeStyle=none;orthogonalLoop=1;jettySize=auto;html=1;rounded=0;labelBackgroundColor=default;strokeColor=default;align=center;verticalAlign=middle;fontFamily=Helvetica;fontSize=15;fontColor=default;endArrow=none;endFill=0;shape=connector;" edge="1" parent="1">
          <mxGeometry width="100" relative="1" as="geometry">
            <mxPoint x="-129.5" y="434" as="sourcePoint" />
            <mxPoint x="-96.5" y="434" as="targetPoint" />
            <Array as="points" />
          </mxGeometry>
        </mxCell>
        <mxCell id="PqNFrKnJrNOgI4oGZhhH-126" value="" style="edgeStyle=none;orthogonalLoop=1;jettySize=auto;html=1;rounded=0;labelBackgroundColor=default;strokeColor=default;align=center;verticalAlign=middle;fontFamily=Helvetica;fontSize=15;fontColor=default;endArrow=none;endFill=0;shape=connector;" edge="1" parent="1">
          <mxGeometry width="100" relative="1" as="geometry">
            <mxPoint x="-97.5" y="434" as="sourcePoint" />
            <mxPoint x="-78.5" y="415" as="targetPoint" />
            <Array as="points" />
          </mxGeometry>
        </mxCell>
        <mxCell id="PqNFrKnJrNOgI4oGZhhH-127" value="" style="edgeStyle=none;orthogonalLoop=1;jettySize=auto;html=1;rounded=0;labelBackgroundColor=default;strokeColor=default;align=center;verticalAlign=middle;fontFamily=Helvetica;fontSize=15;fontColor=default;endArrow=none;endFill=0;shape=connector;" edge="1" parent="1">
          <mxGeometry width="100" relative="1" as="geometry">
            <mxPoint x="-150.5" y="451" as="sourcePoint" />
            <mxPoint x="-128.5" y="434" as="targetPoint" />
            <Array as="points" />
          </mxGeometry>
        </mxCell>
        <mxCell id="PqNFrKnJrNOgI4oGZhhH-128" value="" style="edgeStyle=orthogonalEdgeStyle;shape=connector;rounded=0;orthogonalLoop=1;jettySize=auto;html=1;exitX=0.5;exitY=1;exitDx=0;exitDy=0;labelBackgroundColor=default;strokeColor=default;align=center;verticalAlign=middle;fontFamily=Helvetica;fontSize=15;fontColor=default;endArrow=none;endFill=0;" edge="1" parent="1">
          <mxGeometry relative="1" as="geometry">
            <mxPoint x="-114" y="358" as="targetPoint" />
            <mxPoint x="-114.49999999999955" y="357" as="sourcePoint" />
          </mxGeometry>
        </mxCell>
        <mxCell id="PqNFrKnJrNOgI4oGZhhH-129" style="edgeStyle=orthogonalEdgeStyle;shape=connector;rounded=0;orthogonalLoop=1;jettySize=auto;html=1;exitDx=0;exitDy=0;labelBackgroundColor=default;strokeColor=default;align=center;verticalAlign=middle;fontFamily=Helvetica;fontSize=15;fontColor=default;endArrow=none;endFill=0;" edge="1" parent="1">
          <mxGeometry relative="1" as="geometry">
            <mxPoint x="430.5" y="433.8912105560303" as="targetPoint" />
            <mxPoint x="431" y="358" as="sourcePoint" />
          </mxGeometry>
        </mxCell>
        <mxCell id="PqNFrKnJrNOgI4oGZhhH-130" value="" style="edgeStyle=none;orthogonalLoop=1;jettySize=auto;html=1;rounded=0;labelBackgroundColor=default;strokeColor=default;align=center;verticalAlign=middle;fontFamily=Helvetica;fontSize=15;fontColor=default;endArrow=none;endFill=0;shape=connector;" edge="1" parent="1">
          <mxGeometry width="100" relative="1" as="geometry">
            <mxPoint x="415.5" y="434" as="sourcePoint" />
            <mxPoint x="448.5" y="434" as="targetPoint" />
            <Array as="points" />
          </mxGeometry>
        </mxCell>
        <mxCell id="PqNFrKnJrNOgI4oGZhhH-131" value="" style="edgeStyle=none;orthogonalLoop=1;jettySize=auto;html=1;rounded=0;labelBackgroundColor=default;strokeColor=default;align=center;verticalAlign=middle;fontFamily=Helvetica;fontSize=15;fontColor=default;endArrow=none;endFill=0;shape=connector;" edge="1" parent="1">
          <mxGeometry width="100" relative="1" as="geometry">
            <mxPoint x="447.5" y="434" as="sourcePoint" />
            <mxPoint x="466.5" y="415" as="targetPoint" />
            <Array as="points" />
          </mxGeometry>
        </mxCell>
        <mxCell id="PqNFrKnJrNOgI4oGZhhH-132" value="" style="edgeStyle=none;orthogonalLoop=1;jettySize=auto;html=1;rounded=0;labelBackgroundColor=default;strokeColor=default;align=center;verticalAlign=middle;fontFamily=Helvetica;fontSize=15;fontColor=default;endArrow=none;endFill=0;shape=connector;" edge="1" parent="1">
          <mxGeometry width="100" relative="1" as="geometry">
            <mxPoint x="394.5" y="451" as="sourcePoint" />
            <mxPoint x="416.5" y="434" as="targetPoint" />
            <Array as="points" />
          </mxGeometry>
        </mxCell>
        <mxCell id="PqNFrKnJrNOgI4oGZhhH-133" value="" style="edgeStyle=orthogonalEdgeStyle;shape=connector;rounded=0;orthogonalLoop=1;jettySize=auto;html=1;exitX=0.5;exitY=1;exitDx=0;exitDy=0;labelBackgroundColor=default;strokeColor=default;align=center;verticalAlign=middle;fontFamily=Helvetica;fontSize=15;fontColor=default;endArrow=none;endFill=0;" edge="1" parent="1">
          <mxGeometry relative="1" as="geometry">
            <mxPoint x="431" y="358" as="targetPoint" />
            <mxPoint x="430.50000000000045" y="357" as="sourcePoint" />
          </mxGeometry>
        </mxCell>
        <mxCell id="PqNFrKnJrNOgI4oGZhhH-134" style="edgeStyle=orthogonalEdgeStyle;shape=connector;rounded=0;orthogonalLoop=1;jettySize=auto;html=1;exitDx=0;exitDy=0;labelBackgroundColor=default;strokeColor=default;align=center;verticalAlign=middle;fontFamily=Helvetica;fontSize=15;fontColor=default;endArrow=none;endFill=0;" edge="1" parent="1">
          <mxGeometry relative="1" as="geometry">
            <mxPoint x="566.5" y="433.8912105560303" as="targetPoint" />
            <mxPoint x="567" y="358" as="sourcePoint" />
          </mxGeometry>
        </mxCell>
        <mxCell id="PqNFrKnJrNOgI4oGZhhH-135" value="" style="edgeStyle=none;orthogonalLoop=1;jettySize=auto;html=1;rounded=0;labelBackgroundColor=default;strokeColor=default;align=center;verticalAlign=middle;fontFamily=Helvetica;fontSize=15;fontColor=default;endArrow=none;endFill=0;shape=connector;" edge="1" parent="1">
          <mxGeometry width="100" relative="1" as="geometry">
            <mxPoint x="551.5" y="434" as="sourcePoint" />
            <mxPoint x="584.5" y="434" as="targetPoint" />
            <Array as="points" />
          </mxGeometry>
        </mxCell>
        <mxCell id="PqNFrKnJrNOgI4oGZhhH-136" value="" style="edgeStyle=none;orthogonalLoop=1;jettySize=auto;html=1;rounded=0;labelBackgroundColor=default;strokeColor=default;align=center;verticalAlign=middle;fontFamily=Helvetica;fontSize=15;fontColor=default;endArrow=none;endFill=0;shape=connector;" edge="1" parent="1">
          <mxGeometry width="100" relative="1" as="geometry">
            <mxPoint x="583.5" y="434" as="sourcePoint" />
            <mxPoint x="602.5" y="415" as="targetPoint" />
            <Array as="points" />
          </mxGeometry>
        </mxCell>
        <mxCell id="PqNFrKnJrNOgI4oGZhhH-137" value="" style="edgeStyle=none;orthogonalLoop=1;jettySize=auto;html=1;rounded=0;labelBackgroundColor=default;strokeColor=default;align=center;verticalAlign=middle;fontFamily=Helvetica;fontSize=15;fontColor=default;endArrow=none;endFill=0;shape=connector;" edge="1" parent="1">
          <mxGeometry width="100" relative="1" as="geometry">
            <mxPoint x="530.5" y="451" as="sourcePoint" />
            <mxPoint x="552.5" y="434" as="targetPoint" />
            <Array as="points" />
          </mxGeometry>
        </mxCell>
        <mxCell id="PqNFrKnJrNOgI4oGZhhH-138" value="" style="edgeStyle=orthogonalEdgeStyle;shape=connector;rounded=0;orthogonalLoop=1;jettySize=auto;html=1;exitX=0.5;exitY=1;exitDx=0;exitDy=0;labelBackgroundColor=default;strokeColor=default;align=center;verticalAlign=middle;fontFamily=Helvetica;fontSize=15;fontColor=default;endArrow=none;endFill=0;" edge="1" parent="1">
          <mxGeometry relative="1" as="geometry">
            <mxPoint x="567" y="358" as="targetPoint" />
            <mxPoint x="566.5000000000005" y="357" as="sourcePoint" />
          </mxGeometry>
        </mxCell>
        <mxCell id="PqNFrKnJrNOgI4oGZhhH-139" value="8CH" style="text;html=1;align=center;verticalAlign=middle;resizable=0;points=[];autosize=1;strokeColor=none;fillColor=none;fontSize=16;fontFamily=Helvetica;fontColor=default;fontStyle=1" vertex="1" parent="1">
          <mxGeometry x="-117" y="262" width="50" height="31" as="geometry" />
        </mxCell>
        <mxCell id="PqNFrKnJrNOgI4oGZhhH-140" value="80H" style="text;html=1;align=center;verticalAlign=middle;resizable=0;points=[];autosize=1;strokeColor=none;fillColor=none;fontSize=16;fontFamily=Helvetica;fontColor=default;fontStyle=1" vertex="1" parent="1">
          <mxGeometry x="25" y="262" width="47" height="31" as="geometry" />
        </mxCell>
        <mxCell id="PqNFrKnJrNOgI4oGZhhH-141" value="ACH" style="text;html=1;align=center;verticalAlign=middle;resizable=0;points=[];autosize=1;strokeColor=none;fillColor=none;fontSize=16;fontFamily=Helvetica;fontColor=default;fontStyle=1" vertex="1" parent="1">
          <mxGeometry x="159" y="262" width="53" height="31" as="geometry" />
        </mxCell>
        <mxCell id="PqNFrKnJrNOgI4oGZhhH-142" value="3CH" style="text;html=1;align=center;verticalAlign=middle;resizable=0;points=[];autosize=1;strokeColor=none;fillColor=none;fontSize=16;fontFamily=Helvetica;fontColor=default;fontStyle=1" vertex="1" parent="1">
          <mxGeometry x="297" y="262" width="50" height="31" as="geometry" />
        </mxCell>
        <mxCell id="PqNFrKnJrNOgI4oGZhhH-143" value="3DH" style="text;html=1;align=center;verticalAlign=middle;resizable=0;points=[];autosize=1;strokeColor=none;fillColor=none;fontSize=16;fontFamily=Helvetica;fontColor=default;fontStyle=1" vertex="1" parent="1">
          <mxGeometry x="297" y="377" width="50" height="31" as="geometry" />
        </mxCell>
        <mxCell id="PqNFrKnJrNOgI4oGZhhH-144" value="A4H" style="text;html=1;align=center;verticalAlign=middle;resizable=0;points=[];autosize=1;strokeColor=none;fillColor=none;fontSize=16;fontFamily=Helvetica;fontColor=default;fontStyle=1" vertex="1" parent="1">
          <mxGeometry x="441" y="262" width="50" height="31" as="geometry" />
        </mxCell>
        <mxCell id="PqNFrKnJrNOgI4oGZhhH-145" value="C4H" style="text;html=1;align=center;verticalAlign=middle;resizable=0;points=[];autosize=1;strokeColor=none;fillColor=none;fontSize=16;fontFamily=Helvetica;fontColor=default;fontStyle=1" vertex="1" parent="1">
          <mxGeometry x="573" y="262" width="50" height="31" as="geometry" />
        </mxCell>
        <mxCell id="PqNFrKnJrNOgI4oGZhhH-146" value="3EH" style="text;html=1;align=center;verticalAlign=middle;resizable=0;points=[];autosize=1;strokeColor=none;fillColor=none;fontSize=16;fontFamily=Helvetica;fontColor=default;fontStyle=1" vertex="1" parent="1">
          <mxGeometry x="296" y="497" width="49" height="31" as="geometry" />
        </mxCell>
        <mxCell id="PqNFrKnJrNOgI4oGZhhH-147" value="00H" style="text;html=1;align=center;verticalAlign=middle;resizable=0;points=[];autosize=1;strokeColor=none;fillColor=none;fontSize=16;fontFamily=Helvetica;fontColor=default;fontStyle=1" vertex="1" parent="1">
          <mxGeometry x="245" y="-1" width="47" height="31" as="geometry" />
        </mxCell>
      </root>
    </mxGraphModel>
  </diagram>
</mxfile>
